<?xml version="1.0" standalone="no"?>
<!DOCTYPE svg PUBLIC "-//W3C//DTD SVG 20010904//EN"
        "http://www.w3.org/TR/2001/REC-SVG-20010904/DTD/svg10.dtd">
<svg version="1.0" xmlns="http://www.w3.org/2000/svg"
     width="512.000000pt" height="512.000000pt" viewBox="0 0 512.000000 512.000000"
     preserveAspectRatio="xMidYMid meet">
    <metadata>
        Created by potrace 1.14, written by Peter Selinger 2001-2017
    </metadata>
    <g transform="translate(0.000000,512.000000) scale(0.100000,-0.100000)"
       fill="#000000" stroke="none">
        <path d="M1030 5104 c-262 -56 -464 -166 -651 -353 -194 -194 -309 -412 -361
-689 -19 -98 -19 -2896 0 -2994 52 -277 167 -495 361 -689 194 -194 412 -309
689 -361 98 -19 2886 -19 2984 0 277 52 495 167 689 361 194 194 309 412 361
689 19 98 19 2896 0 2994 -52 277 -167 495 -361 689 -149 150 -303 247 -489
309 -192 63 -98 60 -1699 59 -1212 0 -1469 -3 -1523 -15z m380 -2334 l0 -880
505 0 505 0 0 -210 0 -210 -785 0 -785 0 0 1090 0 1090 280 0 280 0 0 -880z
m2399 371 c269 -68 467 -242 555 -489 70 -198 75 -496 10 -689 -69 -206 -207
-364 -399 -454 -146 -68 -232 -84 -455 -84 -168 1 -207 4 -284 23 -303 76
-508 276 -588 572 -20 74 -23 109 -23 275 0 167 3 200 23 275 64 237 208 413
417 511 75 35 205 72 285 83 19 2 112 3 205 1 131 -3 189 -8 254 -24z"/>
        <path d="M3433 2790 c-117 -24 -192 -102 -238 -250 -26 -85 -32 -333 -11 -441
38 -184 117 -272 269 -300 118 -22 241 13 305 86 80 90 112 204 112 397 0 306
-80 462 -257 504 -64 15 -116 16 -180 4z"/>
    </g>
</svg>
